/* XPM */
static char *bc7bd8fc8b384768e019f1dda27ef1eeoRLx1ySKqilQ1TOt[] = {
/* columns rows colors chars-per-pixel */
"64 64 81 1 ",
"  c SaddleBrown",
". c #8C4713",
"X c #8F4A12",
"o c #904B12",
"O c #914C12",
"+ c #934F12",
"@ c #955111",
"# c #965311",
"$ c #945012",
"% c #975411",
"& c #9A5811",
"* c #9E5C10",
"= c #A6670F",
"- c #A96B0E",
"; c #AA6C0E",
": c #AA6D0E",
"> c #B87E0C",
", c sienna",
"< c #A5592B",
"1 c #A65B2A",
"2 c #A75B2A",
"3 c #A75C29",
"4 c #A85D29",
"5 c #A95E29",
"6 c #A95F29",
"7 c #AD6427",
"8 c #AF6726",
"9 c #B77222",
"0 c #B97421",
"q c #BD830B",
"w c #BF870A",
"e c #C1890A",
"r c #C68F09",
"t c #C48D0A",
"y c #CA9409",
"u c #CB9509",
"i c #CD9808",
"p c #CE9A08",
"a c #D09B08",
"s c #C6871B",
"d c #CF9417",
"f c #CD9118",
"g c #D09516",
"h c #D69E13",
"j c #D39A15",
"k c #D49B14",
"l c #D6A307",
"z c #D7A407",
"x c #D9A706",
"c c #DAA806",
"v c #DAA906",
"b c #DFAE05",
"n c #D8A112",
"m c #DEA910",
"M c #E0AB0F",
"N c #E1B105",
"B c #EBBE03",
"V c #E5B20D",
"C c #EDC103",
"Z c #EFC303",
"A c #EEC008",
"S c #F2C702",
"D c #F0C207",
"F c #F0C307",
"G c #F1C307",
"H c #F2C506",
"J c #F3C802",
"K c #F6CC01",
"L c #F5C805",
"P c #F5C905",
"I c #F8CD03",
"U c #F9CF03",
"Y c #FAD101",
"T c #FBD201",
"R c #FBD102",
"E c #FBD202",
"W c #FCD301",
"Q c #FCD202",
"! c #FED600",
"~ c #FFD600",
"^ c gold",
/* pixels */
",,,,,,,,,,,,,,,,,,,,,,,,,,,,,,,,,,,,,,,,,,,,,,,,,,,,,,,,,,,,,,,,",
"                                                                ",
"                                                                ",
"                                                                ",
",,,,,,,,,,,,,,,,,,,,,,,,,,,,,,,,,,,,,,,,,,,,,,,,,,,,,,,,,,,,,,,,",
"                                                                ",
"                                                                ",
"                                                                ",
",,,,,,,,,,,,,,,,,,,,,,,,,,,,,,,,,,,,,,,,,,,,,,,,,,,,,,,,,,,,,,,,",
"                                                                ",
"                                                                ",
"                                                                ",
",,,,,,,,,,,,,,,,,,,,,,,,,,,,,,,,,,,,,,,,,,,,,,,,,,,,,,,,,,,,,,,,",
"                                                                ",
"                                                                ",
"                                                                ",
",,,,,,,,,,,,,,,,,,,,,,,,,,,,,,,,,,,,,,,,,,,,,,,,,,,,,,,,,,,,,,,,",
"                                                                ",
"                                                                ",
"                                                                ",
",,,,,,,,,,,,,,,,,,,,,,,,,,,,,,,,,,,,,,,,,,,,,,,,,,,,,,,,,,,,,,,,",
"                                                                ",
"                                                                ",
"                                                                ",
",,,,,,,,,,,,,,,,,,,,,,,,,,,,,,,,,,,,,,,,,,,,,,,,,,,,,,,,,,,,,,,,",
"                                                                ",
"                                                                ",
"                                                                ",
",,,,,,,U^^^^^^^^f,,3jDWYAg<,,,,,,,V^^^YHm9,,,,,3jDWYAg<,,,,,,,,,",
"          u^^$    &J^aO$x^C$      b^K O>Y^r   &J^aO$x^C$        ",
"          u^^$    N^S.  OY^l      b^K   q^^:  N^S.  OY^l        ",
"          u^^$   %^^p    v^WX     b^K   X^^x %^^p    v^WX       ",
",,,,,,,,,,k^^6,,,0^^f,,,,h^^7,,,,,V^U,,,,P^D,0^^f,,,,h^^7,,,,,,,",
"          u^^$   -^^e    p^^*     b^K    J^C -^^e    p^^*       ",
"          u^^$   %^^p    v^WX     b^K   o^^v %^^p    v^WX       ",
"          u^^$    N^S.  OY^l      b^K   w^^:  N^S.  OY^l        ",
",,,,,,,,,,k^^6,,,,7P^n<6M^D6,,,,,,V^U,<sW^d,,,7P^n<6M^D6,,,,,,,,",
"          u^^$     $uCYYBrO       b^^^YCz=     $uCYYBrO         ",
"                                                                ",
"                                                                ",
",,,,,,,,,,,,,,,,,,,,,,,,,,,,,,,,,,,,,,,,,,,,,,,,,,,,,,,,,,,,,,,,",
"                                                                ",
"                                                                ",
"                                                                ",
",,,,,,,,,,,,,,,,,,,,,,,,,,,,,,,,,,,,,,,,,,,,,,,,,,,,,,,,,,,,,,,,",
"                                                                ",
"                                                                ",
"                                                                ",
",,,,,,,,,,,,,,,,,,,,,,,,,,,,,,,,,,,,,,,,,,,,,,,,,,,,,,,,,,,,,,,,",
"                                                                ",
"                                                                ",
"                                                                ",
",,,,,,,,,,,,,,,,,,,,,,,,,,,,,,,,,,,,,,,,,,,,,,,,,,,,,,,,,,,,,,,,",
"                                                                ",
"                                                                ",
"                                                                ",
",,,,,,,,,,,,,,,,,,,,,,,,,,,,,,,,,,,,,,,,,,,,,,,,,,,,,,,,,,,,,,,,",
"                                                                ",
"                                                                ",
"                                                                ",
",,,,,,,,,,,,,,,,,,,,,,,,,,,,,,,,,,,,,,,,,,,,,,,,,,,,,,,,,,,,,,,,",
"                                                                ",
"                                                                ",
"                                                                "
};
