/* XPM */
static char *_e632d2bafd643b8b37f6bfef81ddd23RJKQukSB1n698u1r[] = {
/* columns rows colors chars-per-pixel */
"64 64 3 1 ",
"  c SaddleBrown",
". c sienna",
"X c gold",
/* pixels */
"................................................................",
"                                                                ",
"                                                                ",
"                                                                ",
"................................................................",
"                                                                ",
"                                                                ",
"                                                                ",
"................................................................",
"                                                                ",
"                                                                ",
"                                                                ",
"............XXXXXXXXXXXXXXXXXXXXXXXXXXXXXXXXXXXXXXXXX...........",
"            XXXXXXXXXXXXXXXXXXXXXXXXXXXXXXXXXXXXXXXXX           ",
"            XXXXXXXXXXXXXXXXXXXXXXXXXXXXXXXXXXXXXXXXX           ",
"            XXXXXXXXXXXXXXXXXXXXXXXXXXXXXXXXXXXXXXXXX           ",
"............XXXXXXXXXXXXXXXXXXXXXXXXXXXXXXXXXXXXXXXXX...........",
"            XXXXXXXXXXXXXXXXXXXXXXXXXXXXXXXXXXXXXXXXX           ",
"            XXXXXXXXXXXXXXXXXXXXXXXXXXXXXXXXXXXXXXXXX           ",
"            XXXXXXXXXXXXXXXXXXXXXXXXXXXXXXXXXXXXXXXXX           ",
"............XXXXXXXXXXXXXXXXXXXXXXXXXXXXXXXXXXXXXXXXX...........",
"            XXXXXXXXXXXXXXXXXXXXXXXXXXXXXXXXXXXXXXXXX           ",
"            XXXXXXXXXXXXXXXXXXXXXXXXXXXXXXXXXXXXXXXXX           ",
"            XXXXXXXXXXXXXXXXXXXXXXXXXXXXXXXXXXXXXXXXX           ",
"............XXXXXXXXXXXXXXXXXXXXXXXXXXXXXXXXXXXXXXXXX...........",
"            XXXXXXXXXXXXXXXXXXXXXXXXXXXXXXXXXXXXXXXXX           ",
"            XXXXXXXXXXXXXXXXXXXXXXXXXXXXXXXXXXXXXXXXX           ",
"            XXXXXXXXXXXXXXXXXXXXXXXXXXXXXXXXXXXXXXXXX           ",
"............XXXXXXXXXXXXXXXXXXXXXXXXXXXXXXXXXXXXXXXXX...........",
"            XXXXXXXXXXXXXXXXXXXXXXXXXXXXXXXXXXXXXXXXX           ",
"            XXXXXXXXXXXXXXXXXXXXXXXXXXXXXXXXXXXXXXXXX           ",
"            XXXXXXXXXXXXXXXXXXXXXXXXXXXXXXXXXXXXXXXXX           ",
"............XXXXXXXXXXXXXXXXXXXXXXXXXXXXXXXXXXXXXXXXX...........",
"            XXXXXXXXXXXXXXXXXXXXXXXXXXXXXXXXXXXXXXXXX           ",
"            XXXXXXXXXXXXXXXXXXXXXXXXXXXXXXXXXXXXXXXXX           ",
"            XXXXXXXXXXXXXXXXXXXXXXXXXXXXXXXXXXXXXXXXX           ",
"............XXXXXXXXXXXXXXXXXXXXXXXXXXXXXXXXXXXXXXXXX...........",
"            XXXXXXXXXXXXXXXXXXXXXXXXXXXXXXXXXXXXXXXXX           ",
"            XXXXXXXXXXXXXXXXXXXXXXXXXXXXXXXXXXXXXXXXX           ",
"            XXXXXXXXXXXXXXXXXXXXXXXXXXXXXXXXXXXXXXXXX           ",
"............XXXXXXXXXXXXXXXXXXXXXXXXXXXXXXXXXXXXXXXXX...........",
"            XXXXXXXXXXXXXXXXXXXXXXXXXXXXXXXXXXXXXXXXX           ",
"            XXXXXXXXXXXXXXXXXXXXXXXXXXXXXXXXXXXXXXXXX           ",
"            XXXXXXXXXXXXXXXXXXXXXXXXXXXXXXXXXXXXXXXXX           ",
"............XXXXXXXXXXXXXXXXXXXXXXXXXXXXXXXXXXXXXXXXX...........",
"            XXXXXXXXXXXXXXXXXXXXXXXXXXXXXXXXXXXXXXXXX           ",
"            XXXXXXXXXXXXXXXXXXXXXXXXXXXXXXXXXXXXXXXXX           ",
"            XXXXXXXXXXXXXXXXXXXXXXXXXXXXXXXXXXXXXXXXX           ",
"............XXXXXXXXXXXXXXXXXXXXXXXXXXXXXXXXXXXXXXXXX...........",
"            XXXXXXXXXXXXXXXXXXXXXXXXXXXXXXXXXXXXXXXXX           ",
"            XXXXXXXXXXXXXXXXXXXXXXXXXXXXXXXXXXXXXXXXX           ",
"            XXXXXXXXXXXXXXXXXXXXXXXXXXXXXXXXXXXXXXXXX           ",
"............XXXXXXXXXXXXXXXXXXXXXXXXXXXXXXXXXXXXXXXXX...........",
"                                                                ",
"                                                                ",
"                                                                ",
"................................................................",
"                                                                ",
"                                                                ",
"                                                                ",
"................................................................",
"                                                                ",
"                                                                ",
"                                                                "
};
