/* XPM */
static char *c00f663a7f0a493b95307527e118b9cbn1kmxOeTnlnHrpsD[] = {
/* columns rows colors chars-per-pixel */
"64 64 3 1 ",
"  c red",
". c SaddleBrown",
"X c sienna",
/* pixels */
"XXXXXXXXXXXXXXXXXXXXXXXXXXXXXXXXXXXXXXXXXXXXXXXXXXXXXXXXXXXXXXXX",
"................................................................",
"................................................................",
"................................................................",
"XXXXXXXXXXXXXXXXXXXXXXXXXXXXXXXXXXXXXXXXXXXXXXXXXXXXXXXXXXXXXXXX",
"................................................................",
"................................................................",
"................................................................",
"XXXXXXXXXXXXXXXXXXXXXXXXXXXXXXXXXXXXXXXXXXXXXXXXXXXXXXXXXXXXXXXX",
"................................................................",
"................................................................",
"................................................................",
"XXXXXXXXXXXXXXXXXXXXXXXXXXXX         XXXXXXXXXXXXXXXXXXXXXXXXXXX",
".........................               ........................",
".......................                   ......................",
".....................                       ....................",
"XXXXXXXXXXXXXXXXXXXX                         XXXXXXXXXXXXXXXXXXX",
"...................                           ..................",
"..................                             .................",
".................                               ................",
"XXXXXXXXXXXXXXXX                                 XXXXXXXXXXXXXXX",
"...............                                   ..............",
"...............                                   ..............",
"..............                                     .............",
"XXXXXXXXXXXXXX                                     XXXXXXXXXXXXX",
".............                                       ............",
".............                                       ............",
".............                                       ............",
"XXXXXXXXXXXX                                         XXXXXXXXXXX",
"............                                         ...........",
"............                                         ...........",
"............                                         ...........",
"XXXXXXXXXXXX                                         XXXXXXXXXXX",
"............                                         ...........",
"............                                         ...........",
"............                                         ...........",
"XXXXXXXXXXXX                                         XXXXXXXXXXX",
".............                                       ............",
".............                                       ............",
".............                                       ............",
"XXXXXXXXXXXXXX                                     XXXXXXXXXXXXX",
"..............                                     .............",
"...............                                   ..............",
"...............                                   ..............",
"XXXXXXXXXXXXXXXX                                 XXXXXXXXXXXXXXX",
".................                               ................",
"..................                             .................",
"...................                           ..................",
"XXXXXXXXXXXXXXXXXXXX                         XXXXXXXXXXXXXXXXXXX",
".....................                       ....................",
".......................                   ......................",
".........................               ........................",
"XXXXXXXXXXXXXXXXXXXXXXXXXXXX         XXXXXXXXXXXXXXXXXXXXXXXXXXX",
"................................................................",
"................................................................",
"................................................................",
"XXXXXXXXXXXXXXXXXXXXXXXXXXXXXXXXXXXXXXXXXXXXXXXXXXXXXXXXXXXXXXXX",
"................................................................",
"................................................................",
"................................................................",
"XXXXXXXXXXXXXXXXXXXXXXXXXXXXXXXXXXXXXXXXXXXXXXXXXXXXXXXXXXXXXXXX",
"................................................................",
"................................................................",
"................................................................"
};
