/* XPM */
static char *_0704f9f6f854513cd0ff029814e64124yu1AtUCzBZdcfMY[] = {
/* columns rows colors chars-per-pixel */
"64 64 2 1 ",
"  c SaddleBrown",
". c sienna",
/* pixels */
"................................................................",
"                                                                ",
"                                                                ",
"                                                                ",
"................................................................",
"                                                                ",
"                                                                ",
"                                                                ",
"................................................................",
"                                                                ",
"                                                                ",
"                                                                ",
"................................................................",
"                                                                ",
"                                                                ",
"                                                                ",
"................................................................",
"                                                                ",
"                                                                ",
"                                                                ",
"................................................................",
"                                                                ",
"                                                                ",
"                                                                ",
"................................................................",
"                                                                ",
"                                                                ",
"                                                                ",
"................................................................",
"                                                                ",
"                                                                ",
"                                                                ",
"................................................................",
"                                                                ",
"                                                                ",
"                                                                ",
"................................................................",
"                                                                ",
"                                                                ",
"                                                                ",
"................................................................",
"                                                                ",
"                                                                ",
"                                                                ",
"................................................................",
"                                                                ",
"                                                                ",
"                                                                ",
"................................................................",
"                                                                ",
"                                                                ",
"                                                                ",
"................................................................",
"                                                                ",
"                                                                ",
"                                                                ",
"................................................................",
"                                                                ",
"                                                                ",
"                                                                ",
"................................................................",
"                                                                ",
"                                                                ",
"                                                                "
};
