/* XPM */
static char *ea85349ef36a4e89fadcbc7beb6a30e80aUrvIj9XwtXYjwA[] = {
/* columns rows colors chars-per-pixel */
"64 64 2 1 ",
"  c DimGray",
". c #A9A9A9",
/* pixels */
"               .               .               .               .",
"               .               .               .               .",
"               .               .               .               .",
"               .               .               .               .",
"               .               .               .               .",
"               .               .               .               .",
"               .               .               .               .",
"................................................................",
"........               .               .               .        ",
"........               .               .               .        ",
"........               .               .               .        ",
"........               .               .               .        ",
"........               .               .               .        ",
"........               .               .               .        ",
"........               .               .               .        ",
"................................................................",
"               .               .               .               .",
"               .               .               .               .",
"               .               .               .               .",
"               .               .               .               .",
"               .               .               .               .",
"               .               .               .               .",
"               .               .               .               .",
"................................................................",
"........               .               .               .        ",
"........               .               .               .        ",
"........               .               .               .        ",
"........               .               .               .        ",
"........               .               .               .        ",
"........               .               .               .        ",
"........               .               .               .        ",
"................................................................",
"               .               .               .               .",
"               .               .               .               .",
"               .               .               .               .",
"               .               .               .               .",
"               .               .               .               .",
"               .               .               .               .",
"               .               .               .               .",
"................................................................",
"........               .               .               .        ",
"........               .               .               .        ",
"........               .               .               .        ",
"........               .               .               .        ",
"........               .               .               .        ",
"........               .               .               .        ",
"........               .               .               .        ",
"................................................................",
"               .               .               .               .",
"               .               .               .               .",
"               .               .               .               .",
"               .               .               .               .",
"               .               .               .               .",
"               .               .               .               .",
"               .               .               .               .",
"................................................................",
"........               .               .               .        ",
"........               .               .               .        ",
"........               .               .               .        ",
"........               .               .               .        ",
"........               .               .               .        ",
"........               .               .               .        ",
"........               .               .               .        ",
"................................................................"
};
